<svg
   xmlns:dc="http://purl.org/dc/elements/1.1/"
   xmlns:cc="http://creativecommons.org/ns#"
   xmlns:rdf="http://www.w3.org/1999/02/22-rdf-syntax-ns#"
   xmlns:svg="http://www.w3.org/2000/svg"
   xmlns="http://www.w3.org/2000/svg"
   version="1.1"
   id="svg2"
   viewBox="0 0 163.39502 54.996872"
   height="15.521339mm"
   width="46.113705mm">
  width="46.113705mm"
   height="15.521339mm"
   viewBox="0 0 163.39502 54.996872">
  <g
     id="layer1"
     transform="translate(-292.5882,-502.00663)">
    <path
       d="m 344.66822,515.50141 c 0,-5.6 -4.72001,-12.55105 -11.6,-12.56 l -33.62996,-0.0437 c -3.86036,-0.005 -6.7138,-0.44295 -6.83236,0.45191 l -0.0177,31.35183 c -0.003,5.44 6.88,8.24 11.6,8.24 l 27.76,-0.48 c 7.2,-0.24 12.72,-5.68 12.72,-12.08 0,-2.88 -2.24,-5.36 -2.24,-7.68 0,-2.32 2.24,-4.64 2.24,-7.2 z m -39.92,12.56 27.2,0 c 1.12,0 3.28,1.52 3.28,2.56 0,2.64 -4.96,3.04 -6.64,3.04 l -23.84,0 z m 0,-15.36 25.52,0 c 1.92,0 4.96,1.04 4.96,3.04 0,1.52 -3.04,2.56 -4.4,2.56 l -26.08,0 z"
       style="fill:#000000;fill-opacity:1;stroke:none;stroke-width:1px;"
       id="path4145"/>
    <path
      
       d="m 400.60571,515.50141 c 0,-5.6 -4.72,-12.56 -11.59999,-12.56 l -33.28,0 c -3.6,0 -7.2,4.64 -7.2,7.68 l 0,24.08 c 0,5.44 6.88,8.24 11.6,8.24 l 27.76,-0.48 c 7.19999,-0.24 12.71999,-5.68 12.71999,-12.08 0,-2.88 -2.24,-5.36 -2.24,-7.68 0,-2.32 2.24,-4.64 2.24,-7.2 z m -39.91999,12.56 27.2,0 c 1.12,0 3.28,1.52 3.28,2.56 0,2.64 -4.96,3.04 -6.64,3.04 l -23.84,0 0,-5.6 z m 0,-15.36 25.52,0 c 1.92,0 4.96,1.04 4.96,3.04 0,1.52 -3.04,2.56 -4.4,2.56 l -26.08,0 0,-5.6 z"
       style="fill:#000000;fill-opacity:1;stroke:none;stroke-width:1px;"
       id="path4147" />
    <path
       d="m 430.86321,529.90141 0.24,0 c 0.32,0 1.12,0.48 1.12,0.48 l 20.4,12.56 c 0,0 0.32,-0.24 0.56,-0.48 1.36,-1.44 2.8,-3.44 2.8,-5.36 0,-7.68 -16.32,-10.48 -16.32,-15.68 l 0,-0.24 16.32,-15.68 0,-0.4 c 0,-1.76 -6.16,-2.16 -7.28,-2.16 l -2.88,0 c -5.68,0.4 -16.88,12.16 -16.88,12.16 l -19.2,-11.76 c 0,0 -0.88,-0.4 -1.12,-0.4 l -0.32,0 c -2.56,0 -3.12,5.04 -3.12,6.08 0,6.24 9.92,10.64 15.2,13.92 l 0,0.4 -15.76,15.2 c -0.24,0.24 -18.6451,17.90128 -18.6451,17.90128 0,1.76 0,0 26.3251,-14.38128 7.86316,-4.29561 12.32,-12.16 18.56,-12.16 z"
       style="fill:#000000;fill-opacity:1;stroke:none;stroke-width:1px;"
       id="path4149"/>
    <path
       d="m 400.5225,514.72184 c 0,-5.6 -4.72001,-12.55105 -11.59999,-12.56 l -33.62996,-0.0437 c -3.86036,-0.005 -6.7138,-0.44295 -6.83236,0.45191 l -0.0177,31.35183 c -0.003,5.44 6.88,8.24 11.6,8.24 l 27.76,-0.48 c 7.19999,-0.24 12.71999,-5.68 12.71999,-12.08 0,-2.88 -2.24,-5.36 -2.24,-7.68 0,-2.32 2.24,-4.64 2.24,-7.2 z m -39.91999,12.56 27.2,0 c 1.12,0 3.28,1.52 3.28,2.56 0,2.64 -4.96,3.04 -6.64,3.04 l -23.84,0 z m 0,-15.36 25.52,0 c 1.92,0 4.96,1.04 4.96,3.04 0,1.52 -3.04,2.56 -4.4,2.56 l -26.08,0 z"
       style="fill:#000000;fill-opacity:1;stroke:none;stroke-width:1px;"
       id="path4145-5"/>
  </g>
</svg>